<?xml version="1.0" standalone="no"?>
<!DOCTYPE svg PUBLIC "-//W3C//DTD SVG 20010904//EN"
 "http://www.w3.org/TR/2001/REC-SVG-20010904/DTD/svg10.dtd">
<svg version="1.0" xmlns="http://www.w3.org/2000/svg"
 width="38.000000pt" height="36.000000pt" viewBox="0 0 38.000000 36.000000"
 preserveAspectRatio="xMidYMid meet">

<g transform="translate(0.000000,36.000000) scale(0.100000,-0.100000)"
fill="#000000" stroke="none">
<path d="M126 351 c-24 -5 -37 -22 -78 -102 -43 -82 -49 -99 -39 -117 7 -13
21 -22 34 -22 17 0 34 22 80 101 57 99 58 101 40 121 -11 13 -13 19 -4 17 7
-3 46 -59 86 -124 62 -104 75 -120 96 -117 17 2 21 0 13 -8 -7 -7 -66 -10
-173 -8 -88 2 -161 2 -161 1 0 -1 11 -22 24 -45 l24 -43 123 0 122 0 28 53
c16 28 26 52 24 52 -3 0 -1 9 5 20 9 17 2 37 -44 119 -31 54 -63 102 -72 105
-19 7 -89 6 -128 -3z"/>
</g>
</svg>
